<?xml version="1.0" encoding="utf-8"?>
<svg viewBox="0 0 500 500" xmlns="http://www.w3.org/2000/svg">
  <defs>
    <linearGradient id="textGradient3986519731">
      <stop offset="0" stop-color="#6d7cff"/>
      <stop offset="1" stop-color="#ff51ff"/>
    </linearGradient>
  </defs>
  <rect x="-5.95" y="-2.006" width="508.93" height="506.69" fill="#1a1e26" style=""/>
  <g class="logo-container-box logoContainerBox" transform="matrix(0.99, 0, 0, 0.99, -66.800002, 12.400013)">
    <g class="containerBody" transform="scale(1.12) translate(-34.285714285714334,-25.71427808489119)">
      <g class="sampleTexts_1" transform="scale(1) translate(0,39.974998474121094)">
        <g class="logo--name svgLogoName_1 logoNameBox" transform="scale(1) translate(170.64001417160034,223.60000228881836)" fill="url(#textGradient3986519731)">
          <path d="M6.64-63.55L14.27-63.55L14.27 0L6.64 0L6.64-63.55ZM55.35-33.95L62.40-33.95L62.40 0L54.78 0L54.78-5.58L54.78-5.58Q52.97-3.20 49.53-1.19L49.53-1.19L49.53-1.19Q46.08 0.82 41.74 0.82L41.74 0.82L41.74 0.82Q36.90 0.82 33.01-1.27L33.01-1.27L33.01-1.27Q29.11-3.36 26.86-7.38L26.86-7.38L26.86-7.38Q24.60-11.40 24.60-16.97L24.60-16.97L24.60-16.97Q24.60-22.55 26.94-26.69L26.94-26.69L26.94-26.69Q29.27-30.83 33.25-33.09L33.25-33.09L33.25-33.09Q37.23-35.34 42.07-35.34L42.07-35.34L42.07-35.34Q46.41-35.34 49.61-33.46L49.61-33.46L49.61-33.46Q52.81-31.57 54.78-28.54L54.78-28.54L55.35-33.95ZM43.79-5.49L43.79-5.49Q47.97-5.49 50.96-7.83L50.96-7.83L50.96-7.83Q53.96-10.17 54.78-14.19L54.78-14.19L54.78-20.91L54.78-20.91Q53.79-24.52 50.68-26.77L50.68-26.77L50.68-26.77Q47.56-29.03 43.54-29.03L43.54-29.03L43.54-29.03Q40.51-29.03 37.92-27.55L37.92-27.55L37.92-27.55Q35.34-26.08 33.83-23.41L33.83-23.41L33.83-23.41Q32.31-20.75 32.31-17.38L32.31-17.38L32.31-17.38Q32.31-14.10 33.87-11.40L33.87-11.40L33.87-11.40Q35.42-8.69 38.05-7.09L38.05-7.09L38.05-7.09Q40.67-5.49 43.79-5.49L43.79-5.49ZM83.07-25.91L83.07-25.91Q84.38-28.70 86.80-30.83L86.80-30.83L86.80-30.83Q89.22-32.96 91.92-34.11L91.92-34.11L91.92-34.11Q94.63-35.26 96.68-35.34L96.68-35.34L96.35-27.72L96.35-27.72Q92.66-27.88 89.67-26.24L89.67-26.24L89.67-26.24Q86.67-24.60 84.99-21.69L84.99-21.69L84.99-21.69Q83.31-18.78 83.31-15.50L83.31-15.50L83.31 0L75.69 0L75.69-33.95L82.49-33.95L83.07-25.91ZM134.32-33.95L141.37-33.95L141.37 0L133.74 0L133.74-5.58L133.74-5.58Q131.94-3.20 128.49-1.19L128.49-1.19L128.49-1.19Q125.05 0.82 120.70 0.82L120.70 0.82L120.70 0.82Q115.87 0.82 111.97-1.27L111.97-1.27L111.97-1.27Q108.08-3.36 105.82-7.38L105.82-7.38L105.82-7.38Q103.57-11.40 103.57-16.97L103.57-16.97L103.57-16.97Q103.57-22.55 105.90-26.69L105.90-26.69L105.90-26.69Q108.24-30.83 112.22-33.09L112.22-33.09L112.22-33.09Q116.19-35.34 121.03-35.34L121.03-35.34L121.03-35.34Q125.38-35.34 128.58-33.46L128.58-33.46L128.58-33.46Q131.77-31.57 133.74-28.54L133.74-28.54L134.32-33.95ZM122.75-5.49L122.75-5.49Q126.94-5.49 129.93-7.83L129.93-7.83L129.93-7.83Q132.92-10.17 133.74-14.19L133.74-14.19L133.74-20.91L133.74-20.91Q132.76-24.52 129.64-26.77L129.64-26.77L129.64-26.77Q126.53-29.03 122.51-29.03L122.51-29.03L122.51-29.03Q119.47-29.03 116.89-27.55L116.89-27.55L116.89-27.55Q114.31-26.08 112.79-23.41L112.79-23.41L112.79-23.41Q111.27-20.75 111.27-17.38L111.27-17.38L111.27-17.38Q111.27-14.10 112.83-11.40L112.83-11.40L112.83-11.40Q114.39-8.69 117.01-7.09L117.01-7.09L117.01-7.09Q119.64-5.49 122.75-5.49L122.75-5.49ZM155.14 16.40L150.55 11.64L150.55 11.64Q155.47 7.46 155.47-0.08L155.47-0.08L155.47-33.95L163.18-33.95L163.18 0.25L163.18 0.25Q163.18 6.07 161.25 10.00L161.25 10.00L161.25 10.00Q159.33 13.94 155.14 16.40L155.14 16.40ZM154.90-46.17L154.90-46.17Q154.90-47.97 156.29-49.20L156.29-49.20L156.29-49.20Q157.69-50.43 159.49-50.43L159.49-50.43L159.49-50.43Q161.29-50.43 162.65-49.20L162.65-49.20L162.65-49.20Q164-47.97 164-46.17L164-46.17L164-46.17Q164-44.36 162.65-43.13L162.65-43.13L162.65-43.13Q161.29-41.90 159.49-41.90L159.49-41.90L159.49-41.90Q157.69-41.90 156.29-43.13L156.29-43.13L156.29-43.13Q154.90-44.36 154.90-46.17L154.90-46.17ZM173.02-17.30L173.02-17.30Q173.02-22.30 175.44-26.45L175.44-26.45L175.44-26.45Q177.86-30.59 182.16-32.96L182.16-32.96L182.16-32.96Q186.47-35.34 191.88-35.34L191.88-35.34L191.88-35.34Q197.29-35.34 201.51-32.96L201.51-32.96L201.51-32.96Q205.74-30.59 208.07-26.49L208.07-26.49L208.07-26.49Q210.41-22.39 210.41-17.30L210.41-17.30L210.41-17.30Q210.41-12.22 208.07-8.08L208.07-8.08L208.07-8.08Q205.74-3.94 201.47-1.56L201.47-1.56L201.47-1.56Q197.21 0.82 191.72 0.82L191.72 0.82L191.72 0.82Q186.39 0.82 182.12-1.44L182.12-1.44L182.12-1.44Q177.86-3.69 175.44-7.79L175.44-7.79L175.44-7.79Q173.02-11.89 173.02-17.30L173.02-17.30ZM180.73-17.22L180.73-17.22Q180.73-14.02 182.16-11.32L182.16-11.32L182.16-11.32Q183.60-8.61 186.10-7.05L186.10-7.05L186.10-7.05Q188.60-5.49 191.63-5.49L191.63-5.49L191.63-5.49Q196.39-5.49 199.51-8.86L199.51-8.86L199.51-8.86Q202.62-12.22 202.62-17.22L202.62-17.22L202.62-17.22Q202.62-22.22 199.51-25.63L199.51-25.63L199.51-25.63Q196.39-29.03 191.63-29.03L191.63-29.03L191.63-29.03Q188.52-29.03 186.06-27.43L186.06-27.43L186.06-27.43Q183.60-25.83 182.16-23.12L182.16-23.12L182.16-23.12Q180.73-20.42 180.73-17.22L180.73-17.22ZM242.39-35.34L242.39-35.34Q246.98-35.34 250.80-33.13L250.80-33.13L250.80-33.13Q254.61-30.91 256.82-26.90L256.82-26.90L256.82-26.90Q259.04-22.88 259.04-17.55L259.04-17.55L259.04-17.55Q259.04-11.97 256.66-7.79L256.66-7.79L256.66-7.79Q254.28-3.61 250.22-1.39L250.22-1.39L250.22-1.39Q246.16 0.82 241.41 0.82L241.41 0.82L241.41 0.82Q237.23 0.82 233.82-0.82L233.82-0.82L233.82-0.82Q230.42-2.46 228.29-5.25L228.29-5.25L228.29 0L220.66 0L220.66-63.55L228.29-63.55L228.29-29.44L228.29-29.44Q230.42-32.14 234.15-33.74L234.15-33.74L234.15-33.74Q237.88-35.34 242.39-35.34L242.39-35.34ZM239.77-5.74L239.77-5.74Q244.77-5.74 248.01-9.10L248.01-9.10L248.01-9.10Q251.25-12.46 251.25-17.55L251.25-17.55L251.25-17.55Q251.25-20.83 249.73-23.49L249.73-23.49L249.73-23.49Q248.21-26.16 245.59-27.72L245.59-27.72L245.59-27.72Q242.97-29.27 239.77-29.27L239.77-29.27L239.77-29.27Q235.59-29.27 232.43-27.02L232.43-27.02L232.43-27.02Q229.27-24.76 228.29-21.07L228.29-21.07L228.29-14.19L228.29-14.19Q229.27-10.50 232.39-8.12L232.39-8.12L232.39-8.12Q235.50-5.74 239.77-5.74L239.77-5.74ZM278.88 0.74L278.88 0.74Q275.11 0.74 271.71-0.57L271.71-0.57L271.71-0.57Q268.30-1.89 266.17-4.43L266.17-4.43L269.45-8.86L269.45-8.86Q271.50-6.89 273.76-5.82L273.76-5.82L273.76-5.82Q276.01-4.76 278.23-4.76L278.23-4.76L278.23-4.76Q280.93-4.76 282.65-5.82L282.65-5.82L282.65-5.82Q284.38-6.89 284.38-9.10L284.38-9.10L284.38-9.10Q284.38-10.82 283.31-11.89L283.31-11.89L283.31-11.89Q282.24-12.96 280.89-13.45L280.89-13.45L280.89-13.45Q279.54-13.94 276.34-14.92L276.34-14.92L276.34-14.92Q267.65-17.71 267.65-24.85L267.65-24.85L267.65-24.85Q267.65-29.11 270.80-32.14L270.80-32.14L270.80-32.14Q273.96-35.18 279.62-35.18L279.62-35.18L279.62-35.18Q283.23-35.18 286.02-34.28L286.02-34.28L286.02-34.28Q288.80-33.37 291.18-31.41L291.18-31.41L288.15-26.73L288.15-26.73Q286.84-28.13 284.83-28.95L284.83-28.95L284.83-28.95Q282.82-29.77 281.01-29.85L281.01-29.85L281.01-29.85Q278.72-29.85 277.08-28.74L277.08-28.74L277.08-28.74Q275.44-27.63 275.44-25.75L275.44-25.75L275.44-25.75Q275.44-24.19 276.50-23.17L276.50-23.17L276.50-23.17Q277.57-22.14 278.72-21.69L278.72-21.69L278.72-21.69Q279.87-21.24 283.23-20.17L283.23-20.17L283.23-20.17Q287.41-18.78 289.75-16.56L289.75-16.56L289.75-16.56Q292.08-14.35 292.08-10.58L292.08-10.58L292.08-10.58Q292.08-5.66 288.64-2.46L288.64-2.46L288.64-2.46Q285.20 0.74 278.88 0.74L278.88 0.74Z"/>
        </g>
        <g id="" class="logo--name svgSloganText_1 sloganBox" transform="scale(1) translate(320,254.4)" fill="url(#sloganGradient3986519731)"/>
      </g>
    </g>
  </g>
</svg>